<svg width="1504" height="320" viewBox="0 0 1504 320" fill="none" xmlns="http://www.w3.org/2000/svg">
<path fill-rule="evenodd" clip-rule="evenodd" d="M109.997 120.961V199.858H29L44.198 160.408L29 120.96L109.997 120.961Z" fill="#03337D" stroke="#03337D" stroke-width="5.64263" stroke-linecap="round" stroke-linejoin="round"/>
<path opacity="0.93" fill-rule="evenodd" clip-rule="evenodd" d="M241.909 120.961V199.858H307.71L322.907 160.408L307.71 120.96L241.909 120.961Z" fill="#03337D" stroke="#03337D" stroke-width="5.64263" stroke-linecap="round" stroke-linejoin="round"/>
<path d="M175.953 284.819L68.3135 222.614V98.205L175.953 36L283.593 98.205V222.615L175.953 284.819Z" fill="white" stroke="#0D47A1" stroke-width="14.8796" stroke-linecap="round" stroke-linejoin="round"/>
<path d="M254.711 182.857C249.696 200.361 238.977 215.682 224.258 226.383C209.539 237.083 191.667 242.548 173.487 241.908C155.307 241.267 137.864 234.558 123.933 222.848C110.002 211.138 100.385 195.101 96.6129 177.288C92.8404 159.475 95.1293 140.91 103.115 124.55C111.101 108.189 124.326 94.9729 140.683 87.0044L176.354 160.368L254.711 182.857Z" fill="#0D47A1" stroke="#0D47A1" stroke-width="13.3916" stroke-linejoin="round"/>
<path d="M124.657 143.597C128.828 130.718 137.646 119.859 149.39 113.142C161.133 106.425 174.957 104.333 188.16 107.275C201.362 110.216 212.994 117.981 220.782 129.05C228.57 140.119 231.954 153.697 230.272 167.131C228.591 180.564 221.965 192.887 211.69 201.691C201.415 210.495 188.229 215.147 174.71 214.738L176.352 160.369L124.657 143.597Z" fill="#1976D2" stroke="#1976D2" stroke-width="11.9037" stroke-linecap="round" stroke-linejoin="round"/>
<path d="M189.938 183.919C186.848 185.705 183.436 186.864 179.899 187.33C176.361 187.796 172.766 187.56 169.32 186.636C165.873 185.712 162.642 184.117 159.811 181.943C156.98 179.768 154.605 177.057 152.821 173.964C149.218 167.717 148.241 160.294 150.107 153.326C151.972 146.359 156.525 140.419 162.766 136.812C165.856 135.026 169.267 133.867 172.805 133.4C176.343 132.934 179.938 133.17 183.385 134.094C186.831 135.019 190.062 136.614 192.893 138.788C195.724 140.962 198.099 143.674 199.883 146.767C203.486 153.014 204.463 160.437 202.598 167.405C200.732 174.372 196.179 180.312 189.938 183.919Z" fill="#42A5F5" stroke="#42A5F5" stroke-width="10.4157" stroke-linecap="round" stroke-linejoin="round"/>
<path d="M384.306 209V116.84H403.89V209H384.306ZM453.281 209V116.84H473.761L525.345 178.28V116.84H545.441V209H524.961L473.121 147.304V209H453.281ZM629.669 209V136.808H593.573V116.84H685.733V136.808H649.637V209H629.669ZM733.962 209V116.84H819.082V136.808H754.058V152.936H806.41V172.904H754.058V189.032H819.082V209H733.962ZM870.234 209V116.712H890.074V189.032H962.394V209H870.234ZM1005.06 209V116.84H1024.64V209H1005.06ZM1124.72 209L1071.34 116.84H1094.38L1133.04 183.784L1171.69 116.84H1194.61L1141.23 209H1124.72ZM1241.06 209V116.84H1326.18V136.808H1261.16V152.936H1313.51V172.904H1261.16V189.032H1326.18V209H1241.06ZM1448.76 209L1422.01 177.128H1447.99L1469.24 202.216V209H1448.76ZM1377.21 209V116.968H1450.29C1453.79 116.968 1456.95 117.821 1459.77 119.528C1462.67 121.235 1464.97 123.539 1466.68 126.44C1468.47 129.341 1469.37 132.499 1469.37 135.912V159.72C1469.37 163.133 1468.47 166.291 1466.68 169.192C1464.97 172.093 1462.67 174.397 1459.77 176.104C1456.95 177.811 1453.79 178.664 1450.29 178.664L1397.05 178.792V209H1377.21ZM1397.05 158.696H1449.27V136.808H1397.05V158.696Z" fill="#003A94"/>
</svg>
