<svg width="1800" height="640" viewBox="0 0 1800 640" fill="none" xmlns="http://www.w3.org/2000/svg">
  <path fill-rule="evenodd" clip-rule="evenodd" d="M257.997 280.961V359.858H177L192.198 320.408L177 280.96L257.997 280.961Z" fill="#03337D" stroke="#03337D" stroke-width="5.64263" stroke-linecap="round" stroke-linejoin="round"/>
  <path opacity="0.93" fill-rule="evenodd" clip-rule="evenodd" d="M389.909 280.961V359.858H455.71L470.907 320.408L455.71 280.96L389.909 280.961Z" fill="#03337D" stroke="#03337D" stroke-width="5.64263" stroke-linecap="round" stroke-linejoin="round"/>
  <path d="M323.953 444.819L216.313 382.614V258.205L323.953 196L431.593 258.205V382.615L323.953 444.819Z" fill="white" stroke="#0D47A1" stroke-width="14.8796" stroke-linecap="round" stroke-linejoin="round"/>
  <path d="M402.711 342.857C397.696 360.361 386.977 375.682 372.258 386.383C357.539 397.083 339.667 402.548 321.487 401.908C303.307 401.267 285.864 394.558 271.933 382.848C258.002 371.138 248.385 355.101 244.613 337.288C240.84 319.475 243.129 300.91 251.115 284.55C259.101 268.189 272.326 254.973 288.683 247.004L324.354 320.368L402.711 342.857Z" fill="#0D47A1" stroke="#0D47A1" stroke-width="13.3916" stroke-linejoin="round"/>
  <path d="M272.657 303.597C276.828 290.718 285.646 279.859 297.39 273.142C309.133 266.425 322.957 264.333 336.16 267.275C349.362 270.216 360.994 277.981 368.782 289.05C376.57 300.119 379.954 313.697 378.272 327.131C376.591 340.564 369.965 352.887 359.69 361.691C349.415 370.495 336.229 375.147 322.71 374.738L324.352 320.369L272.657 303.597Z" fill="#1976D2" stroke="#1976D2" stroke-width="11.9037" stroke-linecap="round" stroke-linejoin="round"/>
  <path d="M337.938 343.919C334.848 345.705 331.436 346.864 327.899 347.33C324.361 347.796 320.766 347.56 317.32 346.636C313.873 345.712 310.642 344.117 307.811 341.943C304.98 339.768 302.605 337.057 300.821 333.964C297.218 327.717 296.241 320.294 298.107 313.326C299.972 306.359 304.525 300.419 310.766 296.812C313.856 295.026 317.267 293.867 320.805 293.4C324.343 292.934 327.938 293.17 331.385 294.094C334.831 295.019 338.062 296.614 340.893 298.788C343.724 300.962 346.099 303.674 347.883 306.767C351.486 313.014 352.463 320.437 350.598 327.405C348.732 334.372 344.179 340.312 337.938 343.919Z" fill="#42A5F5" stroke="#42A5F5" stroke-width="10.4157" stroke-linecap="round" stroke-linejoin="round"/>
  <path d="M532.306 369V276.84H551.89V369H532.306ZM601.281 369V276.84H621.761L673.345 338.28V276.84H693.441V369H672.961L621.121 307.304V369H601.281ZM777.669 369V296.808H741.573V276.84H833.733V296.808H797.637V369H777.669ZM881.962 369V276.84H967.082V296.808H902.058V312.936H954.41V332.904H902.058V349.032H967.082V369H881.962ZM1018.23 369V276.712H1038.07V349.032H1110.39V369H1018.23ZM1153.06 369V276.84H1172.64V369H1153.06ZM1272.72 369L1219.34 276.84H1242.38L1281.04 343.784L1319.69 276.84H1342.61L1289.23 369H1272.72ZM1389.06 369V276.84H1474.18V296.808H1409.16V312.936H1461.51V332.904H1409.16V349.032H1474.18V369H1389.06ZM1596.76 369L1570.01 337.128H1595.99L1617.24 362.216V369H1596.76ZM1525.21 369V276.968H1598.29C1601.79 276.968 1604.95 277.821 1607.77 279.528C1610.67 281.235 1612.97 283.539 1614.68 286.44C1616.47 289.341 1617.37 292.499 1617.37 295.912V319.72C1617.37 323.133 1616.47 326.291 1614.68 329.192C1612.97 332.093 1610.67 334.397 1607.77 336.104C1604.95 337.811 1601.79 338.664 1598.29 338.664L1545.05 338.792V369H1525.21ZM1545.05 318.696H1597.27V296.808H1545.05V318.696Z" fill="#003A94"/>
</svg>
